/* XPM */
static char * arachne_large_xpm[] = {
"48 48 45 1",
" 	c None",
".	c #F4F4F4",
"+	c #CECECC",
"@	c #2E2E2C",
"#	c #BABABC",
"$	c #020205",
"%	c #565654",
"&	c #222224",
"*	c #161615",
"=	c #A2A2AA",
"-	c #3E3E3C",
";	c #454544",
">	c #6B6B6F",
",	c #8A8A8C",
"'	c #060C32",
")	c #727274",
"!	c #2D3A7E",
"~	c #131C51",
"{	c #060A23",
"]	c #020620",
"^	c #AAAAAC",
"/	c #5863A9",
"(	c #515CA5",
"_	c #3B4587",
":	c #232C6C",
"<	c #0C1442",
"[	c #16247C",
"}	c #364289",
"|	c #616AAC",
"1	c #4A559F",
"2	c #161E62",
"3	c #283584",
"4	c #3A4695",
"5	c #1E2450",
"6	c #7E7E7C",
"7	c #1F2D80",
"8	c #0E1E78",
"9	c #09145E",
"0	c #3E4B97",
"a	c #060E48",
"b	c #444E95",
"c	c #2E3D91",
"d	c #6D6EAC",
"e	c #0B154E",
"f	c #333D86",
"                                                ",
"                                                ",
"                                                ",
"                                                ",
"                                                ",
"                                                ",
"   ...........................................  ",
"   .+++++++++++++++++++++++++++++++++++++++++@  ",
"   .+++++++++++++++++++++++++++++++++++++++++@  ",
"   .+++++++++++++++++++++++++++++++++++++++++@  ",
"   .+++++++++++++++++++++++++++++++++++++++++@  ",
"   .++++++++++++++++++++#$%#+++++++++++++++++@  ",
"   .++++++++++++++++++++&$$*=++++++++++++++++@  ",
"   .+++++++++++++++++++%$$$$$%#++++++++++++++@  ",
"   .++++-@@@@@@@#+++++=$$$$$$$;+=>>>>>>++++++@  ",
"   .++++,$$$$$$$@++++#'$$$$$$$#+>$$$$$$++++++@  ",
"   .+++++;$$$$$$$)+++@!~{]$$$,++>$$$$$$++++++@  ",
"   .+++++#*$$$$$$]^+>/(_:<]$;+++>$$$$$$++++++@  ",
"   .++++++^$$$$$$$*,[}(|1!2&#+++>$$$$$$++++++@  ",
"   .+++++++>$$$$$$$]'~31/(4^++++>$$$$$$++++++@  ",
"   .++++++++@$$$$$$$$]'5}16+++++>$$$$$$++++++@  ",
"   .++++++++#$$$$$$$$$$]<:>>>>>>@$$$$$$++++++@  ",
"   .+++++++++,{{{''']$$$]{'']$$$$$$$$$$++++++@  ",
"   .++++++++++%::7789{$$$$$$$$$$$$$$$$$++++++@  ",
"   .++++++++++#(11038a]$$$$$$$$$$$$$$$$++++++@  ",
"   .++++++++++6(11(079]$$$$$$$$$$$$$$$$++++++@  ",
"   .+++++++++^::5:b/c9]$$$$$$$$$$$$$$$$++++++@  ",
"   .++++++++#&]]$'_d49]$$$@@@@@@*$$$$$$++++++@  ",
"   .++++++++;$$$${}|4e]$$$^+++++>$$$$$$++++++@  ",
"   .+++++++6$$$$$'f|4e]$$$*#++++>$$$$$$++++++@  ",
"   .++++++^$$$$$$'f>_e$$$$$-++++>$$$$$$++++++@  ",
"   .+++++#&$$$$$$a=+@<$$$$$$6+++>$$$$$$++++++@  ",
"   .+++++;$$$$$$$%++#'$$$$$$$^++>$$$$$$++++++@  ",
"   .++++,$$$$$$$&++++,$$$$$$$&++>$$$$$$++++++@  ",
"   .++++-@@@@@@@#+++++%$$$$$$$)+6@@@@@@++++++@  ",
"   .++++++++++++++++++#&$$$$$>+++++++++++++++@  ",
"   .+++++++++++++++++++^$$$@#++++++++++++++++@  ",
"   .++++++++++++++++++++,$)++++++++++++++++++@  ",
"   .+++++++++++++++++++++++++++++++++++++++++@  ",
"   .+++++++++++++++++++++++++++++++++++++++++@  ",
"   .+++++++++++++++++++++++++++++++++++++++++@  ",
"   .@@@@@@@@@@@@@@@@@@@@@@@@@@@@@@@@@@@@@@@@@@  ",
"                                                ",
"                                                ",
"                                                ",
"                                                ",
"                                                ",
"                                                "};
