/* XPM */
static char * arachne_large_3_xpm[] = {
"48 48 34 1",
" 	c None",
".	c #2E2E2C",
"+	c #222224",
"@	c #020205",
"#	c #161615",
"$	c #060C32",
"%	c #2D3A7E",
"&	c #131C51",
"*	c #060A23",
"=	c #020620",
"-	c #5863A9",
";	c #515CA5",
">	c #3B4587",
",	c #232C6C",
"'	c #0C1442",
")	c #16247C",
"!	c #364289",
"~	c #616AAC",
"{	c #4A559F",
"]	c #161E62",
"^	c #283584",
"/	c #3A4695",
"(	c #1E2450",
"_	c #1F2D80",
":	c #0E1E78",
"<	c #09145E",
"[	c #3E4B97",
"}	c #060E48",
"|	c #444E95",
"1	c #2E3D91",
"2	c #6D6EAC",
"3	c #0B154E",
"4	c #333D86",
"5	c #3E3E3C",
"                                                ",
"                                                ",
"                                                ",
"                                                ",
"                                                ",
"                                                ",
"                                                ",
"                                                ",
"                                                ",
"                                                ",
"                         ..                     ",
"                        +@@#.                   ",
"                       .@@@@@.                  ",
"        ........      .@@@@@@@. .......         ",
"        .@@@@@@@.     $@@@@@@.  .@@@@@.         ",
"         .@@@@@@@.   .%&*=@@@.  .@@@@@.         ",
"          #@@@@@@=. .-;>,'=@.   .@@@@@.         ",
"          .@@@@@@@#.)!;~{%]+    .@@@@@.         ",
"           .@@@@@@@=$&^{-;/.    .@@@@@.         ",
"            .@@@@@@@@=$(!{.     .@@@@@.         ",
"             @@@@@@@@@@=',.......@@@@@.         ",
"             .***$$$=@@@=*$$=@@@@@@@@@.         ",
"              .,,__:<*@@@@@@@@@@@@@@@@.         ",
"               ;{{[^:}=@@@@@@@@@@@@@@@.         ",
"              .;{{;[_<=@@@@@@@@@@@@@@@.         ",
"             .,,(,|-1<=@@@@@@@@@@@@@@@.         ",
"             +==@$>2/<=@@@.......@@@@@.         ",
"            .@@@@*!~/3=@@@.     .@@@@@.         ",
"           .@@@@@$4~/3=@@@#     .@@@@@.         ",
"          .@@@@@@$4.>3@@@@@5    .@@@@@.         ",
"          +@@@@@@}. .'@@@@@@.   .@@@@@.         ",
"         .@@@@@@@.   $@@@@@@@.  .@@@@@.         ",
"        .@@@@@@@+    .@@@@@@@+  .@@@@@.         ",
"        ........      .@@@@@@@. .......         ",
"                       +@@@@@.                  ",
"                       .@@@.                    ",
"                        .@.                     ",
"                                                ",
"                                                ",
"                                                ",
"                                                ",
"                                                ",
"                                                ",
"                                                ",
"                                                ",
"                                                ",
"                                                ",
"                                                "};
