/* XPM */
static char * arachne_xpm[] = {
"32 32 44 1",
" 	c None",
".	c #CECECC",
"+	c #BABABC",
"@	c #020205",
"#	c #565654",
"$	c #222224",
"%	c #161615",
"&	c #A2A2AA",
"*	c #3E3E3C",
"=	c #2E2E2C",
"-	c #454544",
";	c #6B6B6F",
">	c #8A8A8C",
",	c #060C32",
"'	c #727274",
")	c #2D3A7E",
"!	c #131C51",
"~	c #060A23",
"{	c #020620",
"]	c #AAAAAC",
"^	c #5863A9",
"/	c #515CA5",
"(	c #3B4587",
"_	c #232C6C",
":	c #0C1442",
"<	c #16247C",
"[	c #364289",
"}	c #616AAC",
"|	c #4A559F",
"1	c #161E62",
"2	c #283584",
"3	c #3A4695",
"4	c #1E2450",
"5	c #7E7E7C",
"6	c #1F2D80",
"7	c #0E1E78",
"8	c #09145E",
"9	c #3E4B97",
"0	c #060E48",
"a	c #444E95",
"b	c #2E3D91",
"c	c #6D6EAC",
"d	c #0B154E",
"e	c #333D86",
"................................",
"................................",
"................................",
"................+@#+............",
"................$@@%&...........",
"...............#@@@@@#+.........",
"*=======+.....&@@@@@@@-.&;;;;;;.",
">@@@@@@@=....+,@@@@@@@+.;@@@@@@.",
".-@@@@@@@'...=)!~{@@@>..;@@@@@@.",
".+%@@@@@@{].;^/(_:{@-...;@@@@@@.",
"..]@@@@@@@%><[/}|)1$+...;@@@@@@.",
"...;@@@@@@@{,!2|^/3]....;@@@@@@.",
"....=@@@@@@@@{,4[|5.....;@@@@@@.",
"....+@@@@@@@@@@{:_;;;;;;=@@@@@@.",
".....>~~~,,,{@@@{~,,{@@@@@@@@@@.",
"......#__6678~@@@@@@@@@@@@@@@@@.",
"......+/||9270{@@@@@@@@@@@@@@@@.",
"......5/||/968{@@@@@@@@@@@@@@@@.",
".....]__4_a^b8{@@@@@@@@@@@@@@@@.",
"....+${{@,(c38{@@@======%@@@@@@.",
"....-@@@@~[}3d{@@@].....;@@@@@@.",
"...5@@@@@,e}3d{@@@%+....;@@@@@@.",
"..]@@@@@@,e;(d@@@@@*....;@@@@@@.",
".+$@@@@@@0&.=:@@@@@@5...;@@@@@@.",
".-@@@@@@@#..+,@@@@@@@]..;@@@@@@.",
">@@@@@@@$....>@@@@@@@$..;@@@@@@.",
"*=======+.....#@@@@@@@'.5======.",
"..............+$@@@@@;..........",
"...............]@@@=+...........",
"................>@'.............",
"................................",
"................................"};
